<?xml version="1.0" encoding="iso-8859-1"?>
<!-- Generator: Adobe Illustrator 19.0.0, SVG Export Plug-In . SVG Version: 6.00 Build 0)  -->
<svg version="1.1" id="Layer_1" xmlns="http://www.w3.org/2000/svg" xmlns:xlink="http://www.w3.org/1999/xlink" x="0px" y="0px"
	 viewBox="0 0 508 508" style="enable-background:new 0 0 508 508;" xml:space="preserve">
<path style="fill:#9055A9;" d="M504,378.8c0,68.8-55.6,125.2-124.4,125.2H130C61.2,504,4,447.6,4,378.8V129.2C4,60.4,61.2,4,130,4
	h249.6C448.4,4,504,60.4,504,129.2V378.8z"/>
<g>
	<path style="fill:#FFFFFF;" d="M376.4,323.6c-9.6-7.6-20-14.4-30.4-21.6c-20.4-14-38.8-15.2-54,7.6c-8.4,12.8-20.4,13.2-32.8,7.6
		C224.8,302,198,278.4,182.4,244c-6.8-15.2-6.8-28.8,9.2-39.6c8.4-5.6,17.2-12.4,16.4-24.8c-0.8-16-40.8-70.4-56.8-76
		c-6.4-2.4-13.2-2.4-19.6,0C94.8,116,79.2,146,94,181.6c44,105.6,121.2,179.2,227.6,224c6,2.4,12.8,3.6,16.4,4.4
		c24,0.4,52.4-22.8,60.8-45.2C406.4,342.8,389.6,334,376.4,323.6"/>
	<path style="fill:#FFFFFF;" d="M257.2,114.8c77.6,11.6,113.6,48,123.6,124.8c0.8,7.2-1.6,17.6,8.4,18c10.8,0,8-10.4,8.4-17.6
		c0.8-72.4-63.2-139.2-138-141.6c-5.6,0.8-17.2-3.6-18,8.4C240.8,115.2,250.8,113.6,257.2,114.8"/>
	<path style="fill:#FFFFFF;" d="M272.4,135.6c-7.6-0.8-17.2-4.4-19.2,6c-2,10.8,9.2,9.6,16.4,11.2c48,10.4,64.8,27.6,72.8,74.4
		c1.2,6.8-1.2,17.6,10.8,15.6c8.8-1.2,5.6-10.4,6.4-15.6C359.6,182.4,320.4,141.6,272.4,135.6"/>
	<path style="fill:#FFFFFF;" d="M276.8,172.4c-4.8,0-10,0.8-11.6,6c-2.8,8,3.2,9.6,8.8,10.4c19.6,3.2,30,14.4,32,33.6
		c0.4,5.2,4,9.6,9.2,8.8c7.2-0.8,7.6-7.2,7.6-12.8C323.2,196.8,298,172,276.8,172.4"/>
</g>
<path d="M378,508H128.4C57.6,508,0,450,0,378.8V129.2C0,58,57.6,0,128.4,0H378c71.6,0,130,58,130,129.2v249.6
	C508,450,449.6,508,378,508z M128.4,8C62,8,8,62.4,8,129.2v249.6C8,445.6,62,500,128.4,500H378c67.2,0,122-54.4,122-121.2V129.2
	C500,62.4,445.2,8,378,8H128.4z"/>
<path d="M369.2,484h-232C74.8,484,24,432.8,24,369.6V138C24,75.2,74.8,24,137.2,24h232c2.4,0,4,1.6,4,4s-1.6,4-4,4h-232
	C79.2,32,32,79.6,32,138v232c0,58.4,47.2,106.4,105.2,106.4h232c56.8,0,103.2-47.6,103.2-106.4V258c0-2.4,1.6-4,4-4s4,1.6,4,4v112
	C480.4,432.8,430.4,484,369.2,484z"/>
<path d="M446,65.2c-1.2,0-2-0.4-2.8-1.2c-20-20-48.4-32-76-32c-2.4,0-4-1.6-4-4s1.6-4,4-4c29.6,0,60,12.8,81.6,34.4
	c1.6,1.6,1.6,4,0,5.6C448,64.8,447.2,65.2,446,65.2z"/>
<path d="M476.4,234c-2.4,0-4-1.6-4-4v-59.2c0-2.4,1.6-4,4-4s4,1.6,4,4V230C480.4,232.4,478.4,234,476.4,234z"/>
<path d="M336.4,414c-0.4,0-0.8,0-1.6,0c-0.8-0.4-2-0.4-3.2-0.8c-3.6-0.8-8.8-2-13.6-4c-108.8-46-186.4-122.4-229.6-226.4
	c-7.2-17.6-7.6-34.8-1.2-49.2c7.2-15.2,21.2-26.8,41.2-33.6c7.6-2.4,15.2-2.4,22.4,0c17.2,6.4,58.4,61.2,59.6,79.6
	c0.8,14.4-8.8,22.4-18.4,28.4c-12.8,8.4-15.2,18.8-8,34.4c0.8,2,0,4.4-2,5.2s-4.4,0-5.2-2c-8.8-19.2-5.2-34,10.8-44.4
	c8-5.2,15.2-11.2,14.8-21.2c-0.8-14.8-40.4-67.2-54-72.4c-5.6-2-11.2-2-17.2,0c-18,6-30.4,16-36.4,29.2c-5.6,12.4-5.2,27.2,1.2,42.8
	C138.4,282,214,356.4,321.2,402c4,1.6,8.4,2.8,12,3.6c1.2,0.4,2.4,0.4,3.2,0.8c21.2,0,48.4-20.8,56.4-42.8
	c5.6-15.6-2.4-22.4-15.6-32.8c-1.6-1.2-3.2-2.4-4.8-3.6c-8-6.4-16.4-12-24.8-18l-5.6-3.6c-11.2-7.6-20.4-10.4-28.8-9.2
	c-7.2,1.6-14,6.4-20,15.2c-8.8,13.2-22,16-38,9.2c-18.8-8.4-35.2-19.2-48.4-32c-1.6-1.6-1.6-4,0-5.6s4-1.6,5.6,0
	c12.4,12,28,22.4,46,30.4c12.4,5.6,21.6,3.6,28-6.4c7.2-10.8,15.6-16.8,25.2-18.8c10.4-2,21.6,1.2,34.8,10.4l5.2,3.6
	c8.4,5.6,17.2,11.6,25.2,18c1.6,1.2,3.2,2.4,4.8,3.6c11.6,8.8,26.4,19.6,18.4,41.6C392.4,388.8,363.2,414,336.4,414z M387.6,261.6
	L387.6,261.6c-12.4-0.4-12.4-11.2-12.4-16.8c0-1.6,0-3.2-0.4-4.4c-9.6-74.8-44.4-110-120-121.2c-1.2,0-2.4-0.4-3.6-0.4
	c-5.6-0.4-16-1.2-15.2-11.6c0.4-4,1.6-7.6,4-9.6c4-3.6,9.2-3.2,13.6-2.8c1.6,0,3.2,0.4,4,0c0.4,0,0.4,0,0.8,0
	c76.4,2.4,142.8,70.8,142,146c0,1.2,0,2.4,0,3.6c0.4,5.2,0.4,10.8-3.2,14.8C394.4,260.4,391.6,261.6,387.6,261.6z M249.2,102
	c-2,0-3.6,0.4-4.4,0.8c-0.8,0.8-1.2,2.8-1.2,4c0,2,0,2.8,8,3.2c1.6,0,3.2,0.4,4.4,0.4c80,12,116.8,49.2,126.8,128
	c0.4,1.6,0.4,3.6,0.4,5.6c0,8,0.8,8.8,4.4,9.2c1.2,0,2.8,0,3.2-0.8c1.2-1.2,1.2-5.6,0.8-8.8c0-1.2,0-2.8,0-4
	c1.2-70.4-61.6-134.8-133.6-137.2c-1.6,0-3.2,0-5.2,0C251.6,102,250.4,102,249.2,102z M348.8,246.8c-2.8,0-5.6-0.8-7.2-2.4
	c-4-3.2-4.4-8.4-4.4-12.8c0-1.2,0-2.8-0.4-4c-7.6-44.8-23.2-60.8-69.6-71.2c-1.2-0.4-2.8-0.4-4-0.8c-4.8-0.8-10.4-1.6-13.6-5.6
	c-2-2.4-2.4-5.6-1.6-9.6c2-12.4,14-10.8,20-9.6c1.2,0,2.4,0.4,3.2,0.4c50,6.4,90.8,49.2,90.4,96v0.4c0,0.8,0,2.4,0,3.6
	c0,4.8,0.4,14-9.6,15.6l0,0C350.8,246.8,349.6,246.8,348.8,246.8z M260,138.4c-3.2,0-4,1.2-4.8,3.6c0,1.2-0.4,2.4,0.4,3.2
	c1.2,1.6,5.2,2,8,2.4c1.6,0.4,3.2,0.4,4.8,0.8c50,10.8,67.6,29.2,75.6,77.6c0.4,1.6,0.4,3.2,0.4,4.8c0,2.8,0.4,6.4,1.6,7.2
	c0.8,0.4,2,0.8,4,0.4c2.4-0.4,3.2-1.2,2.8-7.2c0-1.6,0-3.2,0-4.8c0.4-42.4-37.2-81.6-83.2-87.2c-1.2,0-2.4-0.4-3.6-0.4
	C263.6,138.8,261.6,138.4,260,138.4z M312.4,235.6c-2.4,0-4.8-0.8-6.8-2.4c-2.8-2.4-4.8-6-5.2-10c-2-18-10.8-27.2-28.8-30
	c-4.4-0.8-9.2-2-11.6-6c-1.6-2.8-1.6-6-0.4-10c2.8-8.4,11.2-8.4,15.6-8.4c10.8-0.4,23.6,5.6,33.6,15.6
	c10.4,10.4,16.4,23.2,16.4,34.4c0,3.6,0.8,15.6-11.2,16.8C313.2,235.6,312.8,235.6,312.4,235.6z M275.6,176.4h-0.4
	c-5.6,0-7.2,0.8-8,3.2c-0.4,1.6-0.8,2.4-0.4,3.2s1.6,1.6,6,2C294,188,306,200.8,308,222c0.4,2,0.8,3.6,2,4.8
	c0.8,0.4,1.6,0.8,2.4,0.8l0,0c2.4-0.4,4.4-1.2,4-8.8c0-9.6-5.2-20-14-28.8C294.8,181.2,284.4,176.4,275.6,176.4z"/>
<g>
</g>
<g>
</g>
<g>
</g>
<g>
</g>
<g>
</g>
<g>
</g>
<g>
</g>
<g>
</g>
<g>
</g>
<g>
</g>
<g>
</g>
<g>
</g>
<g>
</g>
<g>
</g>
<g>
</g>
</svg>
